<svg id="Capa_1" enable-background="new 0 0 512 512" height="512" viewBox="0 0 512 512" width="512" xmlns="http://www.w3.org/2000/svg"><path d="m511.996 254.653c.439 85.421-40.96 161.191-104.896 208.017h-.01c-98.925 32.035-205.523 31.454-304.093-1.659l-.597-.2c-62.18-46.701-102.4-121.061-102.4-204.811 0-141.273 114.446-255.826 255.678-256 140.562-.173 255.595 114.093 256.318 254.653z" fill="#66e1d2"/><path d="m512 256c0 84.86-41.3 160.09-104.9 206.67l-.02.01c-98.925 32.031-205.522 31.445-304.089-1.671l-.591-.199c-62.18-46.7-102.4-121.07-102.4-204.81 0-46.22 12.25-89.57 33.68-127 44.12 77.07 127.16 129 222.32 129s178.21-51.93 222.32-129c21.43 37.43 33.68 80.78 33.68 127z" fill="#00cec9"/><path d="m407.11 459.44-.01 3.23c-42.35 31.01-94.59 49.33-151.1 49.33-.44 0-.89 0-1.33-.01-57.12-.28-109.82-19.29-152.27-51.18l.01-2.41c.03-8.67.78-17.18 2.2-25.46 2.57-14.9 7.29-29.05 13.83-42.13 7.92-15.82 18.5-30.06 31.15-42.13.17-.16.34-.32.51-.49.99-.92 1.99-1.85 3.01-2.76.22-.21.46-.42.68-.62l.15-.12c3.86-3.41 7.88-6.62 12.06-9.61.68-.49 1.37-.98 2.06-1.46.33-.23.65-.46.98-.66 3.31-2.27 6.72-4.41 10.21-6.41 3.18-1.82 6.45-3.53 9.77-5.12 1.07-.51 2.14-1.01 3.21-1.49 1.31-.59 2.64-1.17 3.98-1.72 6.48-2.72 13.18-4.98 20.08-6.76 5.89-1.53 11.92-2.72 18.07-3.54 6.64-.9 13.42-1.36 20.31-1.37h.6c7.2.03 14.27.56 21.21 1.54 5.61.81 11.12 1.91 16.52 3.31h.01c6.86 1.77 13.54 4.01 19.99 6.68 1.89.79 3.76 1.6 5.61 2.46.94.43 1.88.88 2.82 1.34 3.31 1.61 6.55 3.34 9.72 5.19 10.45 6.06 20.1 13.33 28.77 21.61.27.26.55.51.81.78.72.69 1.42 1.38 2.12 2.09 11.38 11.44 20.94 24.7 28.23 39.26 6.55 13.09 11.27 27.24 13.82 42.13 1.49 8.6 2.24 17.46 2.21 26.5z" fill="#ffe400"/><path d="m407.11 459.44-.01 3.23c-42.35 31.01-94.59 49.33-151.1 49.33h-1.33v-205.45h.6c7.2.03 14.27.56 21.21 1.54 5.61.81 11.12 1.91 16.52 3.31h.01c6.86 1.77 13.54 4.01 19.99 6.68 1.89.79 3.76 1.6 5.61 2.46.94.43 1.88.88 2.82 1.34 3.31 1.61 6.55 3.34 9.72 5.19 10.45 6.06 20.1 13.33 28.77 21.61.27.26.55.51.81.78.72.69 1.42 1.38 2.12 2.09 11.38 11.44 20.94 24.7 28.23 39.26 6.55 13.09 11.27 27.24 13.82 42.13 1.49 8.6 2.24 17.46 2.21 26.5z" fill="#fed110"/><path d="m354.713 459.472h-47.197c-2.284 0-4.135-1.851-4.135-4.135v-8.986c0-2.284 1.851-4.135 4.135-4.135h47.197c2.284 0 4.135 1.851 4.135 4.135v8.986c0 2.284-1.851 4.135-4.135 4.135z" fill="#e5233a"/><path d="m263.682 348.694v163.306l-7.774-.061-1.235-.01h-.509l-8.5-.072v-163.163z" fill="#e5233a"/><path d="m254.673 348.694h9.009v163.306h-9.009z" fill="#d11333"/><path d="m254.647 442.741h-19.143l-39.224-124.526c6.473-2.711 13.18-4.974 20.07-6.758z" fill="#374c81"/><path d="m313.065 318.083-39.275 124.658h-19.143l38.296-131.284.122-.061h.01c6.861 1.774 13.538 4.017 19.99 6.687z" fill="#323b5a"/><path d="m135.522 162.009c-14.64-.049-26.548 11.778-26.597 26.418-.09 26.665 21.453 48.354 48.118 48.445l.253-74.846z" fill="#ffa87a"/><path d="m373.576 162.815c14.64.05 26.467 11.958 26.418 26.597-.09 26.665-21.78 48.208-48.445 48.118l.253-74.846z" fill="#e3835a"/><path d="m293.749 279.47-.168 49.697c-.07 20.84-16.35 38.416-37.177 39.179-.649.024-1.301.035-1.955.033h-.012c-.644-.002-1.287-.017-1.927-.045-20.823-.892-36.985-18.587-36.915-39.429l.168-49.698z" fill="#ffa87a"/><path d="m293.749 279.47-.168 49.697c-.07 20.84-16.35 38.416-37.177 39.179-.649.024-1.301.035-1.955.033l.301-89.04z" fill="#e3835a"/><path d="m358.369 163.543-.173 52.679c-.194 57.052-46.491 103.207-103.523 103.258h-.448c-57.215-.194-103.441-46.726-103.248-103.951l.173-52.689c.051-15.331 12.517-27.715 27.848-27.654l75.675.255 76.042.255c15.33.05 27.715 12.517 27.654 27.847z" fill="#ffc0a4"/><path d="m358.369 163.543-.173 52.679c-.194 57.052-46.491 103.207-103.523 103.258v-184.04l76.042.255c15.33.051 27.715 12.518 27.654 27.848z" fill="#ffa87a"/><ellipse cx="221.85" cy="213.332" fill="#323b5a" rx="12.756" ry="12.756" transform="matrix(.553 -.833 .833 .553 -78.548 280.334)"/><ellipse cx="286.853" cy="213.552" fill="#323b5a" rx="12.756" ry="12.756" transform="matrix(.368 -.93 .93 .368 -17.26 401.713)"/><path d="m254.248 243.805c-4.347-.015-7.86-3.551-7.845-7.898l.114-33.796c.015-4.347 3.551-7.86 7.898-7.845 4.348.015 7.861 3.551 7.846 7.898l-.114 33.796c-.015 4.347-3.551 7.859-7.899 7.845z" fill="#e57870"/><g fill="#a63917"><path d="m239.879 187.859c-2.933-6.999-9.837-11.927-17.903-11.954s-15.004 4.853-17.984 11.833z"/><path d="m304.882 188.079c-2.933-6.999-9.837-11.927-17.903-11.954s-15.004 4.853-17.984 11.833z"/><path d="m190.381 135.22c-.037 10.814-4.368 21.171-12.041 28.792l-6.386 6.343c-.035 10.341-8.447 18.697-18.788 18.661l-2.298-.008.089-26.17c.052-15.327 12.519-27.71 27.846-27.658z"/><path d="m358.18 163.541-.089 26.17-2.342-.008c-10.341-.035-18.696-8.447-18.661-18.788l-6.343-6.386c-7.621-7.673-11.882-18.059-11.845-28.873l11.621.039c15.328.052 27.711 12.519 27.659 27.846z"/></g><path d="m320.705 321.712-16.003 74.156-49.998-27.491 38.704-56.787c9.489 2.508 18.633 5.912 27.297 10.122z" fill="#e5233a"/><path d="m254.703 368.377-49.998 27.491-16.065-74.441c8.674-4.149 17.787-7.512 27.267-9.969z" fill="#fe3345"/><path d="m289.34 448.02v58.11c0 1.5-.57 2.87-1.51 3.9 0 0 0 .01-.01.01-8.47 1.05-17.07 1.69-25.78 1.89h-11.64c-9.88-.21-19.62-.98-29.19-2.28-.75-.97-1.2-2.2-1.2-3.52v-58.11c0-3.2 2.59-5.8 5.8-5.8h57.74c1.6 0 3.04.65 4.09 1.7s1.7 2.5 1.7 4.1z" fill="#807bef"/><path d="m289.35 448.02v58.11c0 1.5-.57 2.87-1.52 3.9 0 0 0 .01-.01.01-8.47 1.05-17.07 1.69-25.78 1.89h-7.37l.22-69.71h28.66c1.6 0 3.04.65 4.09 1.7 1.06 1.04 1.71 2.5 1.71 4.1z" fill="#6666e2"/><path d="m278.79 456.865v40.427c0 2.222-1.815 4.026-4.037 4.026h-40.172c-2.222 0-4.026-1.804-4.026-4.026v-40.427c0-2.232 1.804-4.036 4.026-4.036h40.172c2.223-.001 4.037 1.803 4.037 4.036z" fill="#fff"/><path d="m278.79 456.865v40.427c0 2.222-1.815 4.026-4.037 4.026h-20.142l.163-48.489h19.979c2.223-.001 4.037 1.803 4.037 4.036z" fill="#d1f6ff"/><path d="m264.856 469.29c0 5.617-4.546 10.173-10.173 10.183h-.01c-5.627 0-10.183-4.567-10.183-10.183 0-5.627 4.557-10.193 10.183-10.193h.082c5.585.041 10.101 4.597 10.101 10.193z" fill="#66e1d2"/><path d="m264.856 469.29c0 5.617-4.546 10.173-10.173 10.183l.071-20.376c5.586.041 10.102 4.597 10.102 10.193z" fill="#00cec9"/><path d="m274.305 35.893c0 10.836-8.786 19.622-19.632 19.622s-19.632-8.787-19.632-19.622c0-10.846 8.787-19.632 19.632-19.632 10.846 0 19.632 8.786 19.632 19.632z" fill="#d11333"/><path d="m274.305 35.893c0 10.836-8.786 19.622-19.632 19.622v-39.254c10.846 0 19.632 8.786 19.632 19.632z" fill="#bc0e5c"/><path d="m366.738 138.499v25.432c-32.292-2.487-64.258-10.907-93.513-24.708-5.902-2.783-12.222-4.2-18.552-4.24-6.554-.061-13.108 1.356-19.214 4.24-29.326 13.853-61.404 22.262-93.809 24.719v-25.442c0-31.079 12.599-59.213 32.965-79.579s48.5-32.965 79.579-32.965c.163 0 .316 0 .479.01 61.934.243 112.065 50.537 112.065 112.533z" fill="#e5233a"/><path d="m366.738 138.499v25.432c-32.292-2.487-64.258-10.907-93.513-24.708-5.902-2.783-12.222-4.2-18.552-4.24v-109.018c61.934.244 112.065 50.538 112.065 112.534z" fill="#d11333"/><path d="m376.431 164.124c0 6.84-5.718 12.344-12.548 11.987-2.008-.102-4.016-.234-6.024-.387-29.744-2.294-59.192-10.04-86.133-22.762-5.423-2.559-11.233-3.863-17.053-3.914-6.045-.051-12.099 1.254-17.736 3.914-27.012 12.762-56.563 20.509-86.408 22.772-1.916.153-3.833.275-5.749.377-6.829.357-12.548-5.148-12.548-11.987 0-3.201 1.264-6.106 3.313-8.257 2.059-2.151 4.923-3.547 8.114-3.71 2.294-.122 4.577-.275 6.87-.469 26.319-2.212 52.332-9.153 76.174-20.407 8.889-4.189 18.429-6.269 27.97-6.218 9.317.051 18.623 2.13 27.287 6.218 23.76 11.213 49.682 18.144 75.899 20.376 2.385.214 4.76.377 7.145.499 6.392.338 11.427 5.567 11.427 11.968z" fill="#fe3345"/><path d="m285.219 260.97c9.016.03 13.78 10.865 7.557 17.389-3.9 4.089-8.451 7.547-13.486 10.207-7.365 3.913-15.772 6.109-24.696 6.079s-17.316-2.283-24.654-6.246c-5.017-2.695-9.545-6.183-13.417-10.299-6.179-6.566-1.341-17.368 7.675-17.337z" fill="#323b5a"/><path d="m279.29 288.566c-7.365 3.913-15.772 6.109-24.696 6.079s-17.316-2.283-24.654-6.246c6.159-6.627 14.957-10.766 24.712-10.733 9.754.034 18.524 4.231 24.638 10.9z" fill="#e32644"/><path d="m279.276 288.57c-7.361 3.911-15.763 6.106-24.681 6.076l.058-16.979c9.75.033 18.51 4.236 24.623 10.903z" fill="#d11333"/><path d="m295.599 82.639v13.822c0 5.148-4.179 9.317-9.327 9.317h-63.198c-5.148 0-9.327-4.169-9.327-9.317v-13.822c0-5.148 4.179-9.327 9.327-9.327h63.198c5.148.001 9.327 4.18 9.327 9.327z" fill="#fff"/><path d="m295.599 82.639v13.822c0 5.148-4.179 9.317-9.327 9.317h-31.599v-32.465h31.599c5.148 0 9.327 4.179 9.327 9.326z" fill="#d1f6ff"/><path d="m376.431 164.124c0 6.84-5.718 12.344-12.548 11.987-2.008-.102-4.016-.234-6.024-.387-29.744-2.294-59.192-10.04-86.133-22.762-5.423-2.559-11.233-3.863-17.053-3.914v-23.985c9.317.051 18.623 2.13 27.287 6.218 23.76 11.213 49.682 18.144 75.899 20.376 2.385.214 4.76.377 7.145.499 6.392.338 11.427 5.567 11.427 11.968z" fill="#e5233a"/></svg>