<?xml version="1.0" encoding="iso-8859-1"?>
<!-- Generator: Adobe Illustrator 19.0.0, SVG Export Plug-In . SVG Version: 6.00 Build 0)  -->
<svg version="1.1" id="Layer_1" xmlns="http://www.w3.org/2000/svg" xmlns:xlink="http://www.w3.org/1999/xlink" x="0px" y="0px"
	 viewBox="0 0 512 512" style="enable-background:new 0 0 512 512;" xml:space="preserve">
<circle style="fill:#FFD630;" cx="255.997" cy="255.997" r="255.997"/>
<path style="fill:#F5BE18;" d="M512,257.418C511.212,397.083,398.66,510.266,259.311,512L133.832,386.522l262.463-244.808
	L512,257.418z"/>
<polygon style="fill:#E84F4F;" points="321.98,132.356 379.015,186.532 230.913,342.003 173.877,287.829 "/>
<path style="fill:#C94545;" d="M350.424,159.369l28.69,27.271L230.936,342.068l-28.69-27.271L350.424,159.369z"/>
<path style="fill:#FFF094;" d="M173.872,287.842l57.064,54.226l-57.064,25.221l-22.227-21.123l22.384-58.168L173.872,287.842z"/>
<path style="fill:#F0DD85;" d="M202.246,314.798l28.69,27.271l-57.064,25.221l-11.192-10.72l39.724-41.774h-0.158V314.798z"/>
<path style="fill:#00CC96;" d="M366.502,113.498l29.793,28.216c7.724,7.251,6.148,21.438-3.31,31.369l-13.084,13.714l-0.158,0.158
	l-57.537-54.7l0.158-0.158l13.084-13.714c9.458-9.931,23.646-12.296,31.212-4.887h-0.158V113.498z"/>
<path style="fill:#12B589;" d="M381.321,127.369l14.975,14.345c7.724,7.251,6.148,21.438-3.31,31.369l-13.084,13.714l-0.158,0.158
	l-29.005-27.429L381.321,127.369z"/>
<path style="fill:#9D9E9E;" d="M173.872,367.291L133.99,386.68l17.655-40.512L173.872,367.291z"/>
<path style="fill:#727271;" d="M173.872,367.291L133.99,386.68l28.69-30.109L173.872,367.291z"/>
<g>
</g>
<g>
</g>
<g>
</g>
<g>
</g>
<g>
</g>
<g>
</g>
<g>
</g>
<g>
</g>
<g>
</g>
<g>
</g>
<g>
</g>
<g>
</g>
<g>
</g>
<g>
</g>
<g>
</g>
</svg>
