<?xml version="1.0" encoding="iso-8859-1"?>
<!-- Generator: Adobe Illustrator 19.0.0, SVG Export Plug-In . SVG Version: 6.00 Build 0)  -->
<svg version="1.1" id="Layer_1" xmlns="http://www.w3.org/2000/svg" xmlns:xlink="http://www.w3.org/1999/xlink" x="0px" y="0px"
	 viewBox="0 0 473.654 473.654" style="enable-background:new 0 0 473.654 473.654;" xml:space="preserve">
<circle style="fill:#5B4F3F;" cx="236.827" cy="236.827" r="236.827"/>
<path style="fill:#DEBA24;" d="M369.889,126.001c-19.416,1.309-36.678,0.082-51.778-2.67c-53.199-9.693-79.746-38.046-80.61-38.993
	c0-0.052-0.007-0.116-0.007-0.116l-0.052,0.06l-0.06-0.06c0,0,0,0.067,0,0.116c-1.163,1.275-48.82,52.238-145.454,40.458
	c0,110.587,0,143.199,0,143.199c-0.561,9.338,5.161,32.467,22.602,58.913c6.428,9.753,14.453,19.951,24.36,30.089
	c22.845,23.38,55.626,46.389,101.802,62.567c137.545-58.304,142.276-151.569,142.276-151.569s0-32.613,0-143.199
	C378.482,125.343,374.152,125.713,369.889,126.001z"/>
<path style="fill:#EDC11B;" d="M237.5,84.339c0-0.052-0.007-0.116-0.007-0.116l-0.052,0.06l-0.06-0.06c0,0,0,0.067,0,0.116
	c-1.163,1.275-48.82,52.238-145.454,40.458c0,110.587,0,143.199,0,143.199c-0.561,9.338,5.161,32.467,22.602,58.913
	c6.428,9.753,14.453,19.951,24.36,30.089c22.845,23.38,55.626,46.389,101.802,62.567C240.69,419.565,238.364,85.285,237.5,84.339z"
	/>
<path style="fill:#CC3432;" d="M318.111,123.331L114.528,326.91c6.428,9.753,14.453,19.951,24.36,30.089l230.997-230.997
	C350.469,127.31,333.211,126.087,318.111,123.331z"/>
<path style="fill:#D03838;" d="M238.843,202.603L114.528,326.91c6.428,9.753,14.453,19.951,24.36,30.089L239.123,256.77
	L238.843,202.603z"/>
<g>
</g>
<g>
</g>
<g>
</g>
<g>
</g>
<g>
</g>
<g>
</g>
<g>
</g>
<g>
</g>
<g>
</g>
<g>
</g>
<g>
</g>
<g>
</g>
<g>
</g>
<g>
</g>
<g>
</g>
</svg>
