<?xml version="1.0" encoding="iso-8859-1"?>
<!-- Generator: Adobe Illustrator 19.0.0, SVG Export Plug-In . SVG Version: 6.00 Build 0)  -->
<svg version="1.1" id="Layer_1" xmlns="http://www.w3.org/2000/svg" xmlns:xlink="http://www.w3.org/1999/xlink" x="0px" y="0px"
	 viewBox="0 0 473.931 473.931" style="enable-background:new 0 0 473.931 473.931;" xml:space="preserve">
<circle style="fill:#357180;" cx="236.966" cy="236.966" r="236.966"/>
<path style="fill:#E84849;" d="M381.012,283.06c0,12.4-25.957,22.451-38.353,22.451l-78.577-0.344V186.366
	c0-12.4,11.925-22.451,24.321-22.451h54.256c12.396,0,22.451,10.05,22.451,22.451L381.012,283.06z"/>
<path style="fill:#9DDAEC;" d="M355.755,227.17l-75-0.262v-37.736c0-9.624,3.641-12.206,13.261-12.206h43.966
	c9.62,0,12.161,3.787,12.917,12.206L355.755,227.17z"/>
<path style="fill:#D5D6D5;" d="M266.889,305.511H104.332c-15.614,0-28.273-12.658-28.273-28.269V162.25
	c0-15.611,12.658-20.785,28.273-20.785H238.62c15.614,0,28.273,5.175,28.273,20.785v143.261H266.889z"/>
<path style="fill:#CECBCB;" d="M266.889,305.511H104.332c-15.614,0-28.273-12.658-28.273-28.269V169.214
	c0-15.611,190.83-15.611,190.83,0V305.511z"/>
<path style="fill:#E84849;" d="M397.85,288.886c0,9.179-7.446,16.625-16.628,16.625h-78.992c-9.182,0-16.628-7.446-16.628-16.625
	v-44.523c0-9.179,7.446-16.625,16.628-16.625h78.992c9.182,0,16.628,7.446,16.628,16.625V288.886z"/>
<path style="fill:#CECBCB;" d="M412.817,302.357c0,4.846-3.929,8.771-8.774,8.771H77.35c-4.846,0-8.774-3.925-8.774-8.771v-11.072
	c0-4.846,3.929-8.778,8.774-8.778h326.697c4.846,0,8.774,3.933,8.774,8.778v11.072H412.817z"/>
<path style="fill:#E84849;" d="M371.699,302.357c0,4.846-3.929,8.771-8.774,8.771H77.35c-4.846,0-8.774-3.925-8.774-8.771v-12.868
	c0-4.846,3.929-8.771,8.774-8.771h285.575c4.846,0,8.774,3.925,8.774,8.771V302.357z"/>
<circle style="fill:#202121;" cx="332.006" cy="322.203" r="36.834"/>
<circle style="fill:#5E5F5E;" cx="332.006" cy="322.203" r="21.915"/>
<circle style="fill:#A19F9F;" cx="332.006" cy="322.166" r="8.191"/>
<circle style="fill:#202121;" cx="156.136" cy="322.203" r="36.834"/>
<path style="fill:#5E5F5E;" d="M178.052,322.188c0,12.093-9.807,21.904-21.908,21.904c-12.101,0-21.915-9.807-21.915-21.904
	c0-12.108,9.815-21.915,21.915-21.915S178.052,310.08,178.052,322.188z"/>
<circle style="fill:#A19F9F;" cx="156.14" cy="322.166" r="8.191"/>
<g>
	<path style="fill:#E13B3B;" d="M331.434,295.827c12.67,0,27.842,7.439,34.469,18.38l20.628-0.007
		c-6.877-25.182-28.92-43.636-55.097-43.636s-48.22,18.454-55.097,43.64l20.628,0.007
		C303.588,303.27,318.764,295.827,331.434,295.827z"/>
	<path style="fill:#E13B3B;" d="M156.817,295.827c12.67,0,26.724,7.439,33.077,18.372h22.02
		c-6.877-25.182-28.916-43.636-55.097-43.636s-48.22,18.454-55.097,43.636l22.02,0.007
		C130.097,303.27,144.151,295.827,156.817,295.827z"/>
</g>
<g>
</g>
<g>
</g>
<g>
</g>
<g>
</g>
<g>
</g>
<g>
</g>
<g>
</g>
<g>
</g>
<g>
</g>
<g>
</g>
<g>
</g>
<g>
</g>
<g>
</g>
<g>
</g>
<g>
</g>
</svg>
